<svg id="location" xmlns="http://www.w3.org/2000/svg" viewBox="-14 16 240.957 198.723">
  <path id="Line_9" data-name="Line 9" d="M.02,3.206l-.041-6L30.378-3l.041,6Z" transform="translate(138.574 222.42)" fill="#92b209"/>
  <path id="Path_9" data-name="Path 9" d="M53.175,4A45.537,45.537,0,0,0,34.138,8.149,48.991,48.991,0,0,0,18.509,19.528,53.668,53.668,0,0,0,7.9,36.511,56.977,56.977,0,0,0,4,57.391C4,64,6.648,73.033,11.87,84.231a269.286,269.286,0,0,0,17.907,31.559c9.363,14.471,18.694,26.912,23.389,33,5.617-7.293,15.339-20.36,24.813-35.208,15.943-24.986,24.37-44.416,24.37-56.189a56.977,56.977,0,0,0-3.9-20.88A53.668,53.668,0,0,0,87.841,19.528,48.992,48.992,0,0,0,72.212,8.149,45.536,45.536,0,0,0,53.175,4m0-4c29.368,0,53.175,25.695,53.175,57.391s-53.2,97.866-53.175,97.894C53.157,155.265,0,89.076,0,57.391S23.807,0,53.175,0Zm0,155.286h0Z" transform="translate(0)" fill="#bcd64d"/>
  <path id="Path_10" data-name="Path 10" d="M46.094,4A38.944,38.944,0,0,0,29.813,7.548,41.938,41.938,0,0,0,16.435,17.29,45.991,45.991,0,0,0,7.347,31.844,48.86,48.86,0,0,0,4,49.749c0,5.652,2.278,13.4,6.769,23.034A232.827,232.827,0,0,0,26.25,100.068c7.832,12.106,15.65,22.585,19.836,28.033,4.918-6.408,13.09-17.443,21.06-29.932A221.857,221.857,0,0,0,81.858,71.825c4.2-9.189,6.33-16.617,6.33-22.076a48.86,48.86,0,0,0-3.347-17.905A45.991,45.991,0,0,0,75.753,17.29,41.938,41.938,0,0,0,62.375,7.548,38.944,38.944,0,0,0,46.094,4m0-4C71.551,0,92.188,22.273,92.188,49.749s-46.112,84.834-46.094,84.859C46.079,134.591,0,77.215,0,49.749S20.637,0,46.094,0Zm0,134.608h0Z" transform="translate(124.914 83.19)" fill="#bcd64d"/>
  <path id="Ellipse_22" data-name="Ellipse 22" d="M27.524,4C14.553,4,4,16.077,4,30.921S14.553,57.842,27.524,57.842,51.049,45.765,51.049,30.921,40.5,4,27.524,4m0-4c15.2,0,27.524,13.844,27.524,30.921S42.726,61.842,27.524,61.842,0,48,0,30.921,12.323,0,27.524,0Z" transform="translate(25.767 25.533)" fill="#bcd64d"/>
  <path id="Ellipse_23" data-name="Ellipse 23" d="M23.776,4C12.872,4,4,14.185,4,26.7s8.872,22.7,19.776,22.7S43.553,39.224,43.553,26.7,34.681,4,23.776,4m0-4C36.908,0,47.553,11.956,47.553,26.7s-10.645,26.7-23.776,26.7S0,41.453,0,26.7,10.645,0,23.776,0Z" transform="translate(147.349 105.412)" fill="#bcd64d"/>
  <ellipse id="Ellipse_24" data-name="Ellipse 24" cx="4.802" cy="6.91" rx="4.802" ry="6.91" transform="translate(48.49 149.92)" fill="#bcd64d"/>
  <path id="Ellipse_24_-_Outline" data-name="Ellipse 24 - Outline" d="M4.8,1A3.237,3.237,0,0,0,2.228,2.595,7.615,7.615,0,0,0,1,6.91a7.615,7.615,0,0,0,1.228,4.316A3.237,3.237,0,0,0,4.8,12.821a3.237,3.237,0,0,0,2.574-1.595A7.615,7.615,0,0,0,8.6,6.91,7.615,7.615,0,0,0,7.377,2.595,3.237,3.237,0,0,0,4.8,1m0-1C7.454,0,9.6,3.094,9.6,6.91s-2.15,6.91-4.8,6.91S0,10.727,0,6.91,2.15,0,4.8,0Z" transform="translate(48.49 149.92)" fill="#bcd64d"/>
  <ellipse id="Ellipse_25" data-name="Ellipse 25" cx="4.802" cy="6.91" rx="4.802" ry="6.91" transform="translate(166.323 215.51)" fill="#bcd64d"/>
  <path id="Ellipse_25_-_Outline" data-name="Ellipse 25 - Outline" d="M4.8,1A3.237,3.237,0,0,0,2.228,2.595,7.615,7.615,0,0,0,1,6.91a7.615,7.615,0,0,0,1.228,4.316A3.237,3.237,0,0,0,4.8,12.821a3.237,3.237,0,0,0,2.574-1.595A7.615,7.615,0,0,0,8.6,6.91,7.615,7.615,0,0,0,7.377,2.595,3.237,3.237,0,0,0,4.8,1m0-1C7.454,0,9.6,3.094,9.6,6.91s-2.15,6.91-4.8,6.91S0,10.727,0,6.91,2.15,0,4.8,0Z" transform="translate(166.323 215.51)" fill="#bcd64d"/>
  <path id="Path_11" data-name="Path 11" d="M1570.991,1618.116h-33.367l-.425-.214a50.138,50.138,0,0,1-7.628-4.927c-5.341-4.216-8.021-8.42-7.966-12.5.054-4.006,2.806-8.466,8.181-13.257a61.137,61.137,0,0,1,7.709-5.813l.483-.3h60.479a49.744,49.744,0,0,0,4.888-4.958,27.025,27.025,0,0,0,3.462-5.007,8.8,8.8,0,0,0,1.2-4.594c-.209-2.455-2.025-5.588-5.251-9.059a49.141,49.141,0,0,0-5.087-4.716c-.853,0-2.513-.007-4.583-.012-10.317-.023-31.784-.072-45.647-.266l.056-4c13.84.194,35.291.242,45.6.266l3.856.01h.281l.168-.273,1.41.333a3.051,3.051,0,0,1,1.275.754c.285.225.747.6,1.328,1.1a53.346,53.346,0,0,1,4.01,3.8c4.063,4.3,6.273,8.242,6.57,11.723.305,3.587-1.591,7.818-5.635,12.575a52.062,52.062,0,0,1-5.885,5.868l-.554.456h-60.786a58.947,58.947,0,0,0-6.723,5.133,30.917,30.917,0,0,0-4.794,5.227,9.508,9.508,0,0,0-2.008,5.061,8,8,0,0,0,1.816,4.689A24.374,24.374,0,0,0,1532,1609.8a47.444,47.444,0,0,0,6.593,4.319h32.4Z" transform="translate(-1491.605 -1393.67)" fill="#bcd64d"/>
  <path id="Line_8" data-name="Line 8" d="M31.331,3H0V-3H31.331Z" transform="translate(78.591 222.42)" fill="#92b209"/>
  <path id="Line_10" data-name="Line 10" d="M29.047,2H0V-2H29.047Z" transform="translate(109.893 222.42)" fill="#272e08"/>
</svg>
