<svg xmlns="http://www.w3.org/2000/svg"  viewBox="-1.5 0 275.957 198.723" id="mail">
  <g  transform="translate(-0.371 0.343)">
    <path id="Rectangle_1" data-name="Rectangle 1" d="M35,4A30.971,30.971,0,0,0,4,35V169a30.971,30.971,0,0,0,31,31H238a30.971,30.971,0,0,0,31-31V35A30.971,30.971,0,0,0,238,4H35m0-4H238a35,35,0,0,1,35,35V169a35,35,0,0,1-35,35H35A35,35,0,0,1,0,169V35A35,35,0,0,1,35,0Z" transform="translate(0.371 0.337)" fill="#aed139"/>
    <path id="Path_14" data-name="Path 14" d="M4,8.44V156.9H16.934l185.053-.171h13.8V8.571L113.792,94.044a4,4,0,0,1-5.1.03L4,8.44M0,0,111.223,90.978,219.786,0V160.729h-17.8L16.937,160.9H0Z" transform="translate(26.915 42.073)" fill="#aed139"/>
    <path id="Path_15" data-name="Path 15" d="M112.541,5.212,3.047,97.051a21.574,21.574,0,0,0,8.718,2.35c.207,0,.412-.006.61-.018,6.4-.384,119.625-.514,170.294-.514,15.782,0,26.429.012,29.213.033h.291a25.859,25.859,0,0,0,10.595-1.963L112.541,5.212M112.531,0l116.83,97.225S224.7,103,211.851,102.9c-2.839-.022-13.78-.033-29.182-.033-54.287,0-164.027.144-170.054.506C4.878,103.84-3.948,97.7-3.948,97.7Z" transform="translate(249.375 103.058) rotate(-180)" fill="#aed139"/>
    <path id="Line_13" data-name="Line 13" d="M1.294,62.317l-2.588-3.05L70.338-1.525l2.588,3.05Z" transform="translate(159.764 83.947)" fill="#aed139"/>
  </g>
</svg>
