<svg id="telephone" xmlns="http://www.w3.org/2000/svg" viewBox="22 16 240.957 198.723">
  <path id="Path_12" data-name="Path 12" d="M219.237,4a147.787,147.787,0,0,0-20.992,1.3c-8.284,1.236-10.11,2.894-10.307,3.1l-.142.277-.219.277a8.442,8.442,0,0,0-.56,3.064c-.144,1.936-.13,4.385-.115,6.978.044,7.667.1,17.208-3.725,24.348-5.146,9.741-15.657,17.06-31.241,21.753-11.757,3.541-26.494,5.491-41.495,5.491-12.166,0-23.3-1.314-29.109-3.432-13.393-4.193-15.321-18.529-16.73-29a72.383,72.383,0,0,0-1.218-7.326,6.645,6.645,0,0,0-1.1-2.739l-.32-.107-.368-.218c-1.695-1-5.14-1.95-9.452-2.6A106.775,106.775,0,0,0,36.7,24.121a101.094,101.094,0,0,0-20.706,1.928,32.972,32.972,0,0,0-7.18,2.3C6.705,29.375,6.127,30.208,6,30.438a20.965,20.965,0,0,0-1.944,8.553A53.142,53.142,0,0,0,5.1,51.8,64.287,64.287,0,0,0,9.5,65.627a47.226,47.226,0,0,0,7.578,11.982A52.945,52.945,0,0,0,30.5,87.8a117.9,117.9,0,0,0,21.867,9.262c18.741,5.983,40.964,9.146,64.268,9.146,27.874,0,52.15-6.53,67.606-12.007,18.827-6.672,32.587-14.632,37.873-19.561l.077-.072.081-.068c3.7-3.1,8.93-9.088,13.324-15.252,5.185-7.273,8.807-14.1,10.2-19.217a86.958,86.958,0,0,0,2.741-21.307,36.959,36.959,0,0,0-.967-9.029c-.6-2.222-1.326-3.122-1.659-3.3-.568-.3-3.2-1.021-9.09-1.6C231.7,4.278,225.457,4,219.237,4m0-4c13.081,0,25.515,1.2,28.581,2.872,6.753,3.674,5.211,25.8,1.835,38.2S232.494,71.144,224.839,77.56C213.159,88.452,167.882,110.2,116.632,110.2S27.44,95.288,14.085,80.266-3.116,38.694,2.5,28.508s50.541-10.474,61.141-4.2c8.214,2.736.573,33.383,18.978,39.046,5.013,1.857,15.479,3.222,27.826,3.222,25.493,0,59.016-5.815,69.205-25.125,5.949-11.095,1.169-30.4,4.77-34.96C186.86,1.738,203.516,0,219.237,0Z" transform="translate(75.158 0) rotate(43)" fill="#aed139"/>
  <path id="Line_11" data-name="Line 11" d="M49.449,44.695-1.3,1.523,1.3-1.523,52.041,41.648Z" transform="translate(44.989 35.481)" fill="#aed139"/>
  <path id="Line_12" data-name="Line 12" d="M49.449,44.695-1.3,1.523,1.3-1.523,52.041,41.648Z" transform="translate(189.904 145.808)" fill="#aed139"/>
  <path id="Path_13" data-name="Path 13" d="M72.259,61.258A149.426,149.426,0,0,1,46.718,48.735,156.394,156.394,0,0,1,25.691,33.258C14.346,23.347,4.609,11.893-1.728,1.006L1.728-1.006c10.825,18.6,36.16,45.08,71.937,58.519Z" transform="matrix(0.999, -0.035, 0.035, 0.999, 77.927, 127.849)" fill="#aed139"/>
</svg>
