<svg xmlns="http://www.w3.org/2000/svg"   id="battery"  viewBox="0 0 447.318 401.034">
  <g transform="translate(-1195.195 -3212)">
    <ellipse id="Ellipse_30" data-name="Ellipse 30" cx="199.294" cy="200.517" rx="199.294" ry="200.517" transform="translate(1219.171 3212)" fill="#aed139" opacity="0.82"/>
    <path id="Path_24" data-name="Path 24" d="M33.784,4.085A51.214,51.214,0,0,0,21.59,5.51a36.72,36.72,0,0,0-9.681,3.776A19.572,19.572,0,0,0,5.9,14.413a8.919,8.919,0,0,0-1.886,5.275l0,10.579A8.924,8.924,0,0,0,5.9,35.543a19.589,19.589,0,0,0,6.016,5.129A36.741,36.741,0,0,0,21.6,44.449a51.228,51.228,0,0,0,12.2,1.426l379.761.021a51.214,51.214,0,0,0,12.193-1.425,36.72,36.72,0,0,0,9.681-3.776,19.574,19.574,0,0,0,6.013-5.127,8.919,8.919,0,0,0,1.886-5.275l0-10.579a8.924,8.924,0,0,0-1.888-5.276,19.59,19.59,0,0,0-6.016-5.129,36.741,36.741,0,0,0-9.684-3.777,51.227,51.227,0,0,0-12.2-1.426L33.784,4.085m0-4h0L413.545.106c18.656,0,33.781,8.78,33.783,19.607l0,10.579c0,10.827-15.119,19.6-33.773,19.6h0L33.8,49.875C15.139,49.874.014,41.1.012,30.268l0-10.579C.009,8.861,15.129.085,33.784.085Z" transform="translate(1195.185 3538.095)"/>
    <path id="Path_26" data-name="Path 26" d="M33.784,4.085A51.214,51.214,0,0,0,21.59,5.51a36.72,36.72,0,0,0-9.681,3.776A19.572,19.572,0,0,0,5.9,14.413a8.919,8.919,0,0,0-1.886,5.275l0,10.579A8.924,8.924,0,0,0,5.9,35.543a19.589,19.589,0,0,0,6.016,5.129A36.741,36.741,0,0,0,21.6,44.449a51.228,51.228,0,0,0,12.2,1.426l379.761.021a51.214,51.214,0,0,0,12.193-1.425,36.72,36.72,0,0,0,9.681-3.776,19.574,19.574,0,0,0,6.013-5.127,8.919,8.919,0,0,0,1.886-5.275l0-10.579a8.924,8.924,0,0,0-1.888-5.276,19.59,19.59,0,0,0-6.016-5.129,36.741,36.741,0,0,0-9.684-3.777,51.227,51.227,0,0,0-12.2-1.426L33.784,4.085m0-4h0L413.545.106c18.656,0,33.781,8.78,33.783,19.607l0,10.579c0,10.827-15.119,19.6-33.773,19.6h0L33.8,49.875C15.139,49.874.014,41.1.012,30.268l0-10.579C.009,8.861,15.129.085,33.784.085Z" transform="translate(1195.185 3270.939)"/>
    <path id="Path_25" data-name="Path 25" d="M20.726,15.982,4.856,106.963l53.617-5.928,15.948,46.317,16.6-80.991L39.616,70.843,20.726,15.982M19.453,0,42.381,66.587l53.637-4.675L75.4,162.487l-19.67-57.125L0,111.524Z" transform="translate(1399.911 3334.422) rotate(19)"/>
    <path id="Ellipse_31" data-name="Ellipse 31" d="M11.185,3a8.185,8.185,0,1,0,8.185,8.185A8.195,8.195,0,0,0,11.185,3m0-3A11.185,11.185,0,1,1,0,11.185,11.185,11.185,0,0,1,11.185,0Z" transform="translate(1288.47 3426.102)"/>
    <path id="Ellipse_32" data-name="Ellipse 32" d="M11.185,3a8.185,8.185,0,1,0,8.185,8.185A8.195,8.195,0,0,0,11.185,3m0-3A11.185,11.185,0,1,1,0,11.185,11.185,11.185,0,0,1,11.185,0Z" transform="translate(1521.768 3426.102)"/>
    <path id="Rectangle_8" data-name="Rectangle 8" d="M4,4V220.97H394.589V4H4M0,0H398.589V224.97H0Z" transform="translate(1219.171 3317.149)"/>
    <path id="Rectangle_9" data-name="Rectangle 9" d="M4,4V30.235H110.931V4H4M0,0H114.931V34.235H0Z" transform="translate(1238.734 3240.571)" fill="#030000"/>
    <path id="Rectangle_10" data-name="Rectangle 10" d="M4,4V30.235H110.931V4H4M0,0H114.931V34.235H0Z" transform="translate(1480.821 3240.571)" fill="#030000"/>
  </g>
</svg>
