<svg xmlns="http://www.w3.org/2000/svg" id="frame" viewBox="0 0 544.31 422.631">
  <g transform="translate(-1555 -3198)">
    <ellipse id="Ellipse_33" data-name="Ellipse 33" cx="192.43" cy="193.705" rx="192.43" ry="193.705" transform="translate(1646.755 3198)" fill="#aed139" opacity="0.82"/>
    <path id="Polygon_3" data-name="Polygon 3" d="M163.12,0,326.24,257.423H0Z" transform="translate(1555 3361.12)"/>
    <path id="Polygon_4" data-name="Polygon 4" d="M211.546,0,423.092,374.666H0Z" transform="translate(1674.791 3243.877)"/>
    <path id="Path_28" data-name="Path 28" d="M1251.257,3797.908l-1.41-1.071-43.589-33.119,3.025-3.981,42.179,32.048,48.772-32.145,2.751,4.175Z" transform="translate(645.206 -241.171)" fill="#fff"/>
    <path id="Path_32" data-name="Path 32" d="M1582.7,3896.622l-200.028-131.833-173.384,131.736-3.025-3.981,176.2-133.879,202.985,133.782Z" transform="translate(513.863 -275.991)" fill="#fff"/>
    <path id="Path_29" data-name="Path 29" d="M1246.242,3792.815l-36.329-19.2,2.337-4.42,33.975,17.96,45.636-24.486,2.364,4.406Z" transform="translate(632.133 -452.51)" fill="#fff"/>
    <path id="Path_30" data-name="Path 30" d="M1244.857,3789.545l-34.012-20.276,2.56-4.295,30.969,18.462,19.009-15.858,3.2,3.839Z" transform="translate(480.826 -367.458)" fill="#fff"/>
    <path id="Line_15" data-name="Line 15" d="M28.894,49.494-1.691,1.068,1.691-1.068,32.276,47.358Z" transform="translate(1772.918 3444.919)" fill="#fff"/>
  </g>
</svg>
