<svg xmlns="http://www.w3.org/2000/svg"   id="modes" viewBox="0 0 512.478 264.541">
  <g transform="translate(-864.861 -3240)">
    <ellipse id="Ellipse_27" data-name="Ellipse 27" cx="125.503" cy="129.306" rx="125.503" ry="129.306" transform="translate(1013.197 3240)" fill="#aed139" opacity="0.82"/>
    <path id="Rectangle_3" data-name="Rectangle 3" d="M4,4V72.063H350.959V4H4M0,0H354.959V76.063H0Z" transform="translate(864.861 3272.96)"/>
    <path id="Path_23" data-name="Path 23" d="M268.684,2.857c-30.665,0-51.5.953-61.913,2.834-8.077,1.458-19.641,4.514-34.371,9.084-11.859,3.68-25.757,8.335-41.307,13.838C106.272,37.4,85.052,45.585,82.263,46.664q-.105.053-.216.1c-.169.075-.381.161-.688.28-.671.258-1.8.669-3.352,1.22-4.486,1.593-12.281,4.279-23.168,7.983A32.88,32.88,0,0,0,46.6,60.359,27.317,27.317,0,0,0,40.707,65.9a26.055,26.055,0,0,0-5.423,13.767,27.612,27.612,0,0,0,2.992,15.167,28.477,28.477,0,0,0,11.538,11.8,20.106,20.106,0,0,0,9.88,2.6A27.865,27.865,0,0,0,71.6,106.248,53.2,53.2,0,0,0,82.277,99.3,75.076,75.076,0,0,0,92.7,88.875l.676-.869,1.026-.4c.229-.089,23.2-9.049,48.575-18.279,34.264-12.464,56.42-19.47,65.852-20.823,6.8-.975,25.142-1.449,56.089-1.449,44.4,0,101.221,1.03,116.77,1.329V5.585C367.147,4.971,313.8,2.857,268.684,2.857m0-4c53.225,0,117.006,2.9,117.006,2.9V52.463s-68.536-1.409-120.77-1.409c-26.121,0-48.158.352-55.521,1.409C187.314,55.632,95.86,91.332,95.86,91.332s-24.716,31.76-47.991,18.8S24.9,62.209,53.551,52.463,80.5,43.056,80.5,43.056s89.436-34.782,125.556-41.3C218.1-.418,242.074-1.143,268.684-1.143Z" transform="translate(874.09 3391.299)"/>
    <path id="Rectangle_4" data-name="Rectangle 4" d="M4,4V56.85H132.913V4H4M0,0H136.913V60.85H0Z" transform="translate(1240.426 3280.567)"/>
    <rect id="Rectangle_5" data-name="Rectangle 5" width="106.488" height="60.85" transform="translate(1339.307 3280.567) rotate(90)" fill="transparent"/>
    <path id="Rectangle_5_-_Outline" data-name="Rectangle 5 - Outline" d="M4,4V56.85h98.488V4H4M0,0H106.488V60.85H0Z" transform="translate(1339.307 3280.567) rotate(90)"/>
    <path id="Path_22" data-name="Path 22" d="M72.931,4A212.852,212.852,0,0,0,42.8,5.863c-10.362,1.511-18.084,3.9-22.953,7.1-4.489,2.951-8.1,7.775-10.73,14.339A74.232,74.232,0,0,0,4.6,47.3a133.681,133.681,0,0,0-.271,21.924h98.823V5.285C97.539,4.814,85.957,4,72.931,4m0-4c18.661,0,34.221,1.634,34.221,1.634V73.224H.665s-5.819-48.614,16.983-63.6C29.436,1.872,52.959,0,72.931,0Z" transform="translate(1362.791 3456.137) rotate(180)"/>
    <path id="Path_21" data-name="Path 21" d="M7.765,4c-1.031,0-1.9,1.07-2.222,1.531A9.72,9.72,0,0,0,4,11.014v5.944a9.724,9.724,0,0,0,1.544,5.485c.325.461,1.191,1.532,2.223,1.532l87.31.012c1.031,0,1.9-1.07,2.222-1.531a9.72,9.72,0,0,0,1.543-5.483V11.028A9.724,9.724,0,0,0,97.3,5.544c-.325-.461-1.191-1.532-2.223-1.532L7.765,4m0-4h0l87.31.012c4.289,0,7.767,4.933,7.767,11.016v5.944c0,6.083-3.476,11.014-7.765,11.014h0l-87.31-.012C3.478,27.974,0,23.042,0,16.958V11.014C0,4.931,3.476,0,7.765,0Z" transform="translate(1216.181 3362.623) rotate(-90)"/>
    <path id="Ellipse_28" data-name="Ellipse 28" d="M8.874,3a5.874,5.874,0,1,0,5.874,5.874A5.881,5.881,0,0,0,8.874,3m0-3A8.874,8.874,0,1,1,0,8.874,8.874,8.874,0,0,1,8.874,0Z" transform="translate(1301.276 3410.802)"/>
    <path id="Ellipse_29" data-name="Ellipse 29" d="M8.874,3a5.874,5.874,0,1,0,5.874,5.874A5.881,5.881,0,0,0,8.874,3m0-3A8.874,8.874,0,1,1,0,8.874,8.874,8.874,0,0,1,8.874,0Z" transform="translate(933.318 3303.385)"/>
    <path id="Rectangle_6" data-name="Rectangle 6" d="M3,3v9.213H55.315V3H3M0,0H58.315V15.213H0Z" transform="translate(864.861 3305.921)"/>
    <path id="Rectangle_7" data-name="Rectangle 7" d="M3,3v9.213H37.567V3H3M0,0H40.567V15.213H0Z" transform="translate(1177.182 3305.921)"/>
  </g>
</svg>
