<svg xmlns="http://www.w3.org/2000/svg"   viewBox="-7 89 505.957 214.723"   id="durability">
  <g id="durability" transform="translate(-1804.5 -2382.653)">
    <path id="Path_6" data-name="Path 6" d="M22.972-118.79l-2.79-30.551,50.8-2.536L73.156-240.2h30.751s-2.387,118.167-2.388,118.172S22.972-118.79,22.972-118.79Z" transform="translate(2002.087 2759.692)" fill="#aed139"/>
    <path id="Ellipse_8" data-name="Ellipse 8" d="M169.946,14C83.957,14,14,83.957,14,169.946S83.957,325.891,169.946,325.891s155.946-69.957,155.946-155.946S255.934,14,169.946,14m0-14A169.946,169.946,0,1,1,0,169.946,169.946,169.946,0,0,1,169.946,0Z" transform="translate(1914.609 2439.717)"/>
    <path id="Ellipse_9" data-name="Ellipse 9" d="M128.011,14A114.011,114.011,0,1,0,242.022,128.011,114.14,114.14,0,0,0,128.011,14m0-14A128.011,128.011,0,1,1,0,128.011,128.011,128.011,0,0,1,128.011,0Z" transform="translate(1956.298 2481.897)"/>
    <g id="Group_2" data-name="Group 2" transform="translate(2033.911 2382.653)">
      <path id="Path_4" data-name="Path 4" d="M6.854,14,2.72,51.834H33.356L27.918,14H6.854M-5.7,0H40.049l9.463,65.834H-12.893Z" transform="translate(33.055 43.51)"/>
      <path id="Path_3" data-name="Path 3" d="M31.086,14c-5.937,0-12.706,2.486-16.212,4.277-1.957,12.441-.227,51.95,1.3,63.4a29.751,29.751,0,0,0,13.088,3.4c5.723,0,6.95-2.275,7.474-3.246,8.47-15.7,7.251-52.661.036-65.864C36.477,15.43,35.7,14,31.086,14m0-14C38.427,0,45.3,2.374,49.057,9.254c9.633,17.628,10.718,59.354,0,79.224s-43.36,6.995-45.749,0-6.063-73.549,0-79.224C7,5.794,19.619,0,31.086,0Z" transform="translate(0.989 58.414) rotate(-91)"/>
    </g>
    <path id="Path_5" data-name="Path 5" d="M6.042-30.369-6.042-37.44C6.921-59.59,31.911-72.8,59.177-71.908c25.162.82,46.467,13.856,56.992,34.87L103.651-30.77c-8.187-16.348-24.983-26.5-44.93-27.146C36.928-58.626,16.25-47.813,6.042-30.369Z" transform="translate(2033.724 2794.822)"/>
    <path id="Line_4" data-name="Line 4" d="M68.649,7.151-.015,7,.015-7l68.665.151Z" transform="translate(1867.77 2532.66)"/>
    <path id="Line_5" data-name="Line 5" d="M121.39,7H0V-7H121.39Z" transform="translate(1804.5 2586.611)"/>
    <path id="Line_6" data-name="Line 6" d="M47.82,7H0V-7H47.82Z" transform="translate(1878.069 2640.902)"/>
    <path id="Line_7" data-name="Line 7" d="M.045,7.792l-.091-14L122.325-7l.091,14Z" transform="translate(1826.571 2696.664)"/>
  </g>
</svg>
