<svg xmlns="http://www.w3.org/2000/svg"  viewBox="45 89 505.957 498.723"  id="secure">
  <g id="secure" transform="translate(-589.613 -2206.116)">
    <path id="Path_1" data-name="Path 1" d="M146.863,18.993C123.291,41.957,60.195,107.941,36.532,177.515,6.108,266.967,11.821,367.793,23.619,381.075c4.983,5.186,38.879,15.352,94.655,15.352,41.988,0,81.955-5.983,112.541-16.848,63.824-22.671,136.294-82.611,162.367-105.346C380.328,258.507,356.842,227.4,341.4,192.87c-16.33-36.517-23.164-75.738-25.642-94-18.774-4.206-60.163-14.632-95.64-31.649-32.688-15.679-59.49-36.529-73.256-48.228M146.584,0S180.7,32.786,226.173,54.6,328.489,87.25,328.489,87.25s4.638,52.823,25.692,99.9,58.525,88.423,58.525,88.423-94.381,87.773-177.2,117.194S30.775,410.212,13.17,390.392s-20.62-127.04,10.108-217.385S146.584,0,146.584,0Z" transform="matrix(0.695, -0.719, 0.719, 0.695, 589.613, 2502.992)"/>
    <path id="Line_2" data-name="Line 2" d="M3.85,104.714l-7.7-11.692L146.26-5.846l7.7,11.692Z" transform="translate(706.498 2364.295)"/>
    <path id="Line_3" data-name="Line 3" d="M5.043,119.95l-10.085-9.71L105.768-4.855l10.085,9.71Z" transform="translate(898.205 2604.281)"/>
    <path id="Path_2" data-name="Path 2" d="M229.219-215.205,112.158-61.011,40.294-106.1,27.183-84.021c21.8,14.35,69.771,45.93,91.3,60.1,14.266-19.994,48.1-66.235,128.9-176.631l-18.165-14.653m-2.432-19.949,39.783,32.093S121.665-5.08,121.664-5.071,8.321-79.676,8.321-79.676l27.26-45.911,73.171,45.911Z" transform="translate(760.645 2671.902)" fill="#aed139"/>
  </g>
</svg>
