<svg xmlns="http://www.w3.org/2000/svg"  viewBox="0 29 505.957 398.723"  id="technology">
  <g id="technology" transform="translate(-1110.685 -2213.5)">
    <g id="Group_6" data-name="Group 6" transform="translate(1110.685 2213.5)">
      <path id="Union_1" data-name="Union 1" d="M195.123,264.788a78.631,78.631,0,0,1,5.339-28.572,96.263,96.263,0,0,0-48.162.04,78.778,78.778,0,1,1-37.986-41.849,121,121,0,0,0,2-19.6,132.4,132.4,0,0,0-2.2-25.515,78.738,78.738,0,1,1,36.862-38.764,94.109,94.109,0,0,0,29.18,5.534,92.283,92.283,0,0,0,22.932-2.671,78.747,78.747,0,1,1,38.122,37.142,111.631,111.631,0,0,0-3.877,26.387,99.767,99.767,0,0,0,1.271,17.4,78.823,78.823,0,1,1-43.486,70.47Z" transform="translate(229.913 0) rotate(42)" fill="#fff"/>
      <path id="Union_1_-_Outline" data-name="Union 1 - Outline" d="M273.934,329.6a64.811,64.811,0,0,0,0-129.623,64.118,64.118,0,0,0-29.041,6.852l-17.106,8.592-3-18.9a114.155,114.155,0,0,1-1.442-19.841,125.819,125.819,0,0,1,4.337-29.709l4.235-16.077,15.121,6.91a64.764,64.764,0,1,0-31.364-30.559l7.686,15.717-17.02,4.052a107.545,107.545,0,0,1-24.812,3.064l-1.607-.014a108.125,108.125,0,0,1-33.536-6.309l-14.323-4.982,6.109-13.88a64.772,64.772,0,1,0-30.329,31.891l16.762-8.413,3.3,18.462a146.679,146.679,0,0,1,2.412,28.223,135.47,135.47,0,0,1-2.226,21.871l-3.364,18.433L108,206.9a64.117,64.117,0,0,0-29.188-6.925,64.74,64.74,0,1,0,60.439,41.35l-5.785-14.889,15.519-3.784a116.98,116.98,0,0,1,27.611-3.478l1.767.015a116.383,116.383,0,0,1,25.415,3.422L219.3,226.4l-5.8,14.895A64.861,64.861,0,0,0,273.934,329.6m0,14a78.861,78.861,0,0,1-73.472-107.383,96.263,96.263,0,0,0-48.162.04,78.778,78.778,0,1,1-37.986-41.849,121,121,0,0,0,2-19.6,132.4,132.4,0,0,0-2.2-25.515,78.738,78.738,0,1,1,36.862-38.764,94.109,94.109,0,0,0,29.18,5.534,92.286,92.286,0,0,0,22.932-2.671,78.747,78.747,0,1,1,38.122,37.142,111.63,111.63,0,0,0-3.877,26.387,99.767,99.767,0,0,0,1.271,17.4A78.819,78.819,0,1,1,273.934,343.6Z" transform="translate(229.913 0) rotate(42)" fill="#aed139"/>
      <path id="Ellipse_17" data-name="Ellipse 17" d="M55.945,14A41.945,41.945,0,1,0,97.891,55.945,41.993,41.993,0,0,0,55.945,14m0-14A55.945,55.945,0,1,1,0,55.945,55.945,55.945,0,0,1,55.945,0Z" transform="translate(231.605 32.293) rotate(42)" fill="#707070"/>
      <path id="Ellipse_19" data-name="Ellipse 19" d="M55.641,14A41.641,41.641,0,1,0,97.281,55.641,41.688,41.688,0,0,0,55.641,14m0-14A55.641,55.641,0,1,1,0,55.641,55.641,55.641,0,0,1,55.641,0Z" transform="translate(107.424 171.213) rotate(42)" fill="#707070"/>
      <path id="Ellipse_20" data-name="Ellipse 20" d="M55.641,14A41.641,41.641,0,1,0,97.281,55.641,41.688,41.688,0,0,0,55.641,14m0-14A55.641,55.641,0,1,1,0,55.641,55.641,55.641,0,0,1,55.641,0Z" transform="translate(376.937 163.287) rotate(42)" fill="#707070"/>
      <path id="Ellipse_21" data-name="Ellipse 21" d="M55.641,14A41.641,41.641,0,1,0,97.281,55.641,41.688,41.688,0,0,0,55.641,14m0-14A55.641,55.641,0,1,1,0,55.641,55.641,55.641,0,0,1,55.641,0Z" transform="translate(251.937 301.092) rotate(42)" fill="#707070"/>
    </g>
  </g>
</svg>
