<svg xmlns="http://www.w3.org/2000/svg"  viewBox="0 -14 505.957 398.723"  id="trendy">
  <g transform="translate(-388 -3333.384)">
    <path id="Ellipse_10" data-name="Ellipse 10" d="M101.748,38A63.748,63.748,0,1,0,165.5,101.748,63.82,63.82,0,0,0,101.748,38m0-38A101.748,101.748,0,1,1,0,101.748,101.748,101.748,0,0,1,101.748,0Z" transform="translate(630.462 3498.612)" fill="#aed139"/>
    <path id="Ellipse_12" data-name="Ellipse 12" d="M101.748,38A63.748,63.748,0,1,0,165.5,101.748,63.82,63.82,0,0,0,101.748,38m0-38A101.748,101.748,0,1,1,0,101.748,101.748,101.748,0,0,1,101.748,0Z" transform="translate(388 3498.612)" fill="#aed139"/>
    <path id="Path_7" data-name="Path 7" d="M99.816,26.166c28.4,0,59.8,5.123,80.37,13.971.787-.3,18.57-44.71,41.171-39.75s41.994,41.722,41.765,66.7C264.984,87,207.563,86.7,207.563,88.222c-.3,10.8,37.809,27.671,43.71,43.051s-11.816,39.665-25.627,37.438c-31.016-5-75.361-50-80.314-48.781-28.327,6.989-12.258,5.248-38.694,5.248-2.645,0,10.946,19.584,8.918,31.747s-19.9,84.706-23.623,88.488c-5.74,5.828-38.188-1.51-42.276-6.685C42.669,232.611,73.5,154.16,39.593,132.243S0,107.2,0,86.289C0,50.66,33.46,26.166,99.816,26.166Z" transform="matrix(0.951, -0.309, 0.309, 0.951, 467.664, 3414.707)" fill="#0f0000"/>
    <path id="Path_7_-_Outline" data-name="Path 7 - Outline" d="M217.816,0l0,1c-3.908,0-7.954,1.511-12.027,4.491a52.581,52.581,0,0,0-10.464,10.746c-6.272,8.279-10.8,17.512-12.978,21.95-1.25,2.549-1.325,2.7-1.8,2.884l-.38.146-.374-.161c-9.868-4.245-22.67-7.784-37.021-10.236a259.473,259.473,0,0,0-42.954-3.653c-16.137,0-30.728,1.466-43.367,4.359C44.316,34.3,33.924,38.4,25.561,43.711A54.125,54.125,0,0,0,7.133,62.36,47.6,47.6,0,0,0,1,86.289,45.167,45.167,0,0,0,2.3,98.661a22.665,22.665,0,0,0,5.1,9.094c5.215,5.872,14.614,11.943,30.185,22l2.548,1.647c10.524,6.8,15.965,19.225,16.632,37.976.558,15.67-2.334,32.554-4.657,46.121-1.055,6.162-1.967,11.483-2.343,15.514-.486,5.214.134,6.6.547,6.962l.069.06.057.072c1.261,1.6,6.3,3.756,12.843,5.5a82.269,82.269,0,0,0,19.675,2.947c4.154,0,7.087-.656,8.26-1.847.087-.088.579-.7,1.773-4.025.808-2.254,1.8-5.372,2.959-9.269,2.057-6.938,4.637-16.4,7.461-27.355,5.022-19.492,10.132-41.153,11.157-47.3.536-3.216-.02-7.266-1.7-12.383a112.784,112.784,0,0,0-5.02-12.1c-2.275-4.9-2.964-6.5-2.326-7.5a1.292,1.292,0,0,1,1.115-.594c5.71,0,9.382.08,12.063.138,1.4.03,2.5.054,3.4.054,2.926,0,3.783-.244,7.9-1.414,2.918-.829,7.327-2.083,15.087-4a1.92,1.92,0,0,1,.459-.054c1.168,0,3.013.986,6.369,3.4,2.821,2.032,6.431,4.882,10.612,8.183,8.569,6.764,19.234,15.182,30.45,22.432a143.548,143.548,0,0,0,16.861,9.516,62,62,0,0,0,15.96,5.283,10.413,10.413,0,0,0,1.652.13,16.763,16.763,0,0,0,9.333-3.411,34.568,34.568,0,0,0,8.469-8.75,36.271,36.271,0,0,0,5.511-12.184,20.451,20.451,0,0,0-.431-11.878c-1.262-3.289-4.24-6.991-9.1-11.317-4.368-3.885-9.651-7.754-14.76-11.5-10.767-7.885-20.067-14.7-19.912-20.614.013-1.09,1.275-1.249,2.735-1.432,1.208-.152,2.893-.3,5.027-.5a214.358,214.358,0,0,0,24.8-3.352c10.615-2.259,17.654-5.4,20.923-9.332a8.408,8.408,0,0,0,2.079-6.413l0-.051v-.051a68.155,68.155,0,0,0-3.208-19.96,94.913,94.913,0,0,0-8.974-20.376,72.376,72.376,0,0,0-13.162-16.61c-5.139-4.667-10.4-7.617-15.635-8.766A15.547,15.547,0,0,0,217.816,1V0m0,0a16.464,16.464,0,0,1,3.544.387c22.6,4.96,41.994,41.722,41.765,66.7C264.984,87,207.563,86.7,207.563,88.222c-.3,10.8,37.809,27.671,43.71,43.051s-11.817,39.665-25.627,37.438c-30.6-4.934-74.173-48.805-80.094-48.805a.915.915,0,0,0-.22.024c-28.327,6.989-12.258,5.248-38.694,5.248-2.645,0,10.946,19.584,8.918,31.747s-19.9,84.706-23.623,88.488c-5.74,5.828-38.188-1.51-42.276-6.684C42.669,232.611,73.5,154.16,39.593,132.243S0,107.2,0,86.289C0,50.66,33.46,26.166,99.816,26.166c28.4,0,59.8,5.123,80.37,13.971C180.932,39.85,196.924,0,217.814,0Z" transform="matrix(0.951, -0.309, 0.309, 0.951, 467.664, 3414.707)" fill="#707070"/>
  </g>
</svg>
